<svg viewBox="0 0 400 380" fill="none" xmlns="http://www.w3.org/2000/svg" style="max-width: 100%; height: auto;">
  <defs>
    <linearGradient id="logoGradFull" x1="0%" y1="0%" x2="100%" y2="80%">
      <stop offset="0%" stop-color="#A855F7" />
      <stop offset="50%" stop-color="#3B82F6" />
      <stop offset="100%" stop-color="#06B6D4" />
    </linearGradient>
  </defs>

  <g transform="translate(50, 0)">
    <path d="M 120 210 L 100 210 A 30 30 0 0 1 70 180 L 70 80 A 30 30 0 0 1 100 50 L 140 50 A 55 55 0 0 1 195 105 A 55 55 0 0 1 140 160 L 100 160 A 20 20 0 0 0 80 180" 
          stroke="url(#logoGradFull)" stroke-width="42" stroke-linecap="round" stroke-linejoin="round" />
    
    <path d="M 235 40 L 235 90 M 210 65 L 260 65" 
          stroke="#06B6D4" stroke-width="22" stroke-linecap="round" />
  </g>

  <text x="200" y="320" text-anchor="middle" font-family="Outfit, system-ui, sans-serif" font-weight="600" font-size="64" fill="#ffffff" letter-spacing="1">
    Precifica<tspan fill="#06B6D4">+</tspan>
  </text>
</svg>
